<svg xmlns="http://www.w3.org/2000/svg" xmlns:xlink="http://www.w3.org/1999/xlink" version="1.1" class="marks" width="742" height="360" viewBox="0 0 742 360"><rect width="742" height="360" fill="white"/><g fill="none" stroke-miterlimit="10" transform="translate(136,23)"><g class="mark-group role-frame root" role="graphics-object" aria-roledescription="group mark container"><g transform="translate(0,0)"><path class="background" aria-hidden="true" d="M0.5,0.5h600v300h-600Z" stroke="#ddd"/><g><g class="mark-group role-axis" aria-hidden="true"><g transform="translate(0.5,300.5)"><path class="background" aria-hidden="true" d="M0,0h0v0h0Z" pointer-events="none"/><g><g class="mark-rule role-axis-grid" pointer-events="none"><line transform="translate(0,0)" x2="0" y2="-300" stroke="#ddd" stroke-width="1" opacity="1"/><line transform="translate(40,0)" x2="0" y2="-300" stroke="#ddd" stroke-width="1" opacity="1"/><line transform="translate(80,0)" x2="0" y2="-300" stroke="#ddd" stroke-width="1" opacity="1"/><line transform="translate(120,0)" x2="0" y2="-300" stroke="#ddd" stroke-width="1" opacity="1"/><line transform="translate(160,0)" x2="0" y2="-300" stroke="#ddd" stroke-width="1" opacity="1"/><line transform="translate(200,0)" x2="0" y2="-300" stroke="#ddd" stroke-width="1" opacity="1"/><line transform="translate(240,0)" x2="0" y2="-300" stroke="#ddd" stroke-width="1" opacity="1"/><line transform="translate(280,0)" x2="0" y2="-300" stroke="#ddd" stroke-width="1" opacity="1"/><line transform="translate(320,0)" x2="0" y2="-300" stroke="#ddd" stroke-width="1" opacity="1"/><line transform="translate(360,0)" x2="0" y2="-300" stroke="#ddd" stroke-width="1" opacity="1"/><line transform="translate(400,0)" x2="0" y2="-300" stroke="#ddd" stroke-width="1" opacity="1"/><line transform="translate(440,0)" x2="0" y2="-300" stroke="#ddd" stroke-width="1" opacity="1"/><line transform="translate(480,0)" x2="0" y2="-300" stroke="#ddd" stroke-width="1" opacity="1"/><line transform="translate(520,0)" x2="0" y2="-300" stroke="#ddd" stroke-width="1" opacity="1"/><line transform="translate(560,0)" x2="0" y2="-300" stroke="#ddd" stroke-width="1" opacity="1"/><line transform="translate(600,0)" x2="0" y2="-300" stroke="#ddd" stroke-width="1" opacity="1"/></g></g><path class="foreground" aria-hidden="true" d="" pointer-events="none" display="none"/></g></g><g class="mark-group role-axis" role="graphics-symbol" aria-roledescription="axis" aria-label="X-axis titled 'Passengers (Millions)' for a linear scale with values from 0.0 to 3000000.0"><g transform="translate(0.5,300.5)"><path class="background" aria-hidden="true" d="M0,0h0v0h0Z" pointer-events="none"/><g><g class="mark-rule role-axis-tick" pointer-events="none"><line transform="translate(0,0)" x2="0" y2="5" stroke="#888" stroke-width="1" opacity="1"/><line transform="translate(40,0)" x2="0" y2="5" stroke="#888" stroke-width="1" opacity="1"/><line transform="translate(80,0)" x2="0" y2="5" stroke="#888" stroke-width="1" opacity="1"/><line transform="translate(120,0)" x2="0" y2="5" stroke="#888" stroke-width="1" opacity="1"/><line transform="translate(160,0)" x2="0" y2="5" stroke="#888" stroke-width="1" opacity="1"/><line transform="translate(200,0)" x2="0" y2="5" stroke="#888" stroke-width="1" opacity="1"/><line transform="translate(240,0)" x2="0" y2="5" stroke="#888" stroke-width="1" opacity="1"/><line transform="translate(280,0)" x2="0" y2="5" stroke="#888" stroke-width="1" opacity="1"/><line transform="translate(320,0)" x2="0" y2="5" stroke="#888" stroke-width="1" opacity="1"/><line transform="translate(360,0)" x2="0" y2="5" stroke="#888" stroke-width="1" opacity="1"/><line transform="translate(400,0)" x2="0" y2="5" stroke="#888" stroke-width="1" opacity="1"/><line transform="translate(440,0)" x2="0" y2="5" stroke="#888" stroke-width="1" opacity="1"/><line transform="translate(480,0)" x2="0" y2="5" stroke="#888" stroke-width="1" opacity="1"/><line transform="translate(520,0)" x2="0" y2="5" stroke="#888" stroke-width="1" opacity="1"/><line transform="translate(560,0)" x2="0" y2="5" stroke="#888" stroke-width="1" opacity="1"/><line transform="translate(600,0)" x2="0" y2="5" stroke="#888" stroke-width="1" opacity="1"/></g><g class="mark-text role-axis-label" pointer-events="none"><text text-anchor="start" transform="translate(0,15)" font-family="sans-serif" font-size="10px" fill="#000" opacity="1">0</text><text text-anchor="middle" transform="translate(40,15)" font-family="sans-serif" font-size="10px" fill="#000" opacity="1">0.2</text><text text-anchor="middle" transform="translate(80,15)" font-family="sans-serif" font-size="10px" fill="#000" opacity="1">0.4</text><text text-anchor="middle" transform="translate(120,15)" font-family="sans-serif" font-size="10px" fill="#000" opacity="1">0.6</text><text text-anchor="middle" transform="translate(160,15)" font-family="sans-serif" font-size="10px" fill="#000" opacity="1">0.8</text><text text-anchor="middle" transform="translate(200,15)" font-family="sans-serif" font-size="10px" fill="#000" opacity="1">1</text><text text-anchor="middle" transform="translate(240,15)" font-family="sans-serif" font-size="10px" fill="#000" opacity="1">1.2</text><text text-anchor="middle" transform="translate(280,15)" font-family="sans-serif" font-size="10px" fill="#000" opacity="1">1.4</text><text text-anchor="middle" transform="translate(320,15)" font-family="sans-serif" font-size="10px" fill="#000" opacity="1">1.6</text><text text-anchor="middle" transform="translate(360,15)" font-family="sans-serif" font-size="10px" fill="#000" opacity="1">1.8</text><text text-anchor="middle" transform="translate(400,15)" font-family="sans-serif" font-size="10px" fill="#000" opacity="1">2</text><text text-anchor="middle" transform="translate(439.99999999999994,15)" font-family="sans-serif" font-size="10px" fill="#000" opacity="1">2.2</text><text text-anchor="middle" transform="translate(480,15)" font-family="sans-serif" font-size="10px" fill="#000" opacity="1">2.4</text><text text-anchor="middle" transform="translate(520,15)" font-family="sans-serif" font-size="10px" fill="#000" opacity="1">2.6</text><text text-anchor="middle" transform="translate(560,15)" font-family="sans-serif" font-size="10px" fill="#000" opacity="1">2.8</text><text text-anchor="end" transform="translate(600,15)" font-family="sans-serif" font-size="10px" fill="#000" opacity="1">3</text></g><g class="mark-rule role-axis-domain" pointer-events="none"><line transform="translate(0,0)" x2="600" y2="0" stroke="#888" stroke-width="1" opacity="1"/></g><g class="mark-text role-axis-title" pointer-events="none"><text text-anchor="middle" transform="translate(300,30)" font-family="sans-serif" font-size="12px" font-weight="bold" fill="#000" opacity="1">Passengers (Millions)</text></g></g><path class="foreground" aria-hidden="true" d="" pointer-events="none" display="none"/></g></g><g class="mark-group role-axis" role="graphics-symbol" aria-roledescription="axis" aria-label="Y-axis titled 'Route' for a discrete scale with 10 values: Sydney to Auckland, Sydney to Singapore, Sydney to Tokyo, Sydney to Hong Kong, Perth to Singapore, ending with Sydney to Honolulu"><g transform="translate(0.5,0.5)"><path class="background" aria-hidden="true" d="M0,0h0v0h0Z" pointer-events="none"/><g><g class="mark-rule role-axis-tick" pointer-events="none"><line transform="translate(0,15)" x2="-5" y2="0" stroke="#888" stroke-width="1" opacity="1"/><line transform="translate(0,45)" x2="-5" y2="0" stroke="#888" stroke-width="1" opacity="1"/><line transform="translate(0,75)" x2="-5" y2="0" stroke="#888" stroke-width="1" opacity="1"/><line transform="translate(0,105)" x2="-5" y2="0" stroke="#888" stroke-width="1" opacity="1"/><line transform="translate(0,135)" x2="-5" y2="0" stroke="#888" stroke-width="1" opacity="1"/><line transform="translate(0,165)" x2="-5" y2="0" stroke="#888" stroke-width="1" opacity="1"/><line transform="translate(0,195)" x2="-5" y2="0" stroke="#888" stroke-width="1" opacity="1"/><line transform="translate(0,225)" x2="-5" y2="0" stroke="#888" stroke-width="1" opacity="1"/><line transform="translate(0,255)" x2="-5" y2="0" stroke="#888" stroke-width="1" opacity="1"/><line transform="translate(0,285)" x2="-5" y2="0" stroke="#888" stroke-width="1" opacity="1"/></g><g class="mark-text role-axis-label" pointer-events="none"><text text-anchor="end" transform="translate(-7,17.5)" font-family="sans-serif" font-size="10px" fill="#000" opacity="1">Sydney to Auckland</text><text text-anchor="end" transform="translate(-7,47.5)" font-family="sans-serif" font-size="10px" fill="#000" opacity="1">Sydney to Singapore</text><text text-anchor="end" transform="translate(-7,77.5)" font-family="sans-serif" font-size="10px" fill="#000" opacity="1">Sydney to Tokyo</text><text text-anchor="end" transform="translate(-7,107.5)" font-family="sans-serif" font-size="10px" fill="#000" opacity="1">Sydney to Hong Kong</text><text text-anchor="end" transform="translate(-7,137.5)" font-family="sans-serif" font-size="10px" fill="#000" opacity="1">Perth to Singapore</text><text text-anchor="end" transform="translate(-7,167.5)" font-family="sans-serif" font-size="10px" fill="#000" opacity="1">Brisbane to Auckland</text><text text-anchor="end" transform="translate(-7,197.5)" font-family="sans-serif" font-size="10px" fill="#000" opacity="1">Sydney to Christchurch</text><text text-anchor="end" transform="translate(-7,227.5)" font-family="sans-serif" font-size="10px" fill="#000" opacity="1">Melbourne to Singapore</text><text text-anchor="end" transform="translate(-7,257.5)" font-family="sans-serif" font-size="10px" fill="#000" opacity="1">Sydney to Los Angeles</text><text text-anchor="end" transform="translate(-7,287.5)" font-family="sans-serif" font-size="10px" fill="#000" opacity="1">Sydney to Honolulu</text></g><g class="mark-rule role-axis-domain" pointer-events="none"><line transform="translate(0,0)" x2="0" y2="300" stroke="#888" stroke-width="1" opacity="1"/></g><g class="mark-text role-axis-title" pointer-events="none"><text text-anchor="middle" transform="translate(-117.73828125,150) rotate(-90) translate(0,-3)" font-family="sans-serif" font-size="12px" font-weight="bold" fill="#000" opacity="1">Route</text></g></g><path class="foreground" aria-hidden="true" d="" pointer-events="none" display="none"/></g></g><g class="mark-group role-scope" role="graphics-object" aria-roledescription="group mark container"><g transform="translate(0,1.5)"><path class="background" aria-hidden="true" d="M3,0L589.2424,0C590.8981450734819,0,592.2424,1.344254926518,592.2424,3L592.2424,24C592.2424,25.655745073482,590.8981450734819,27,589.2424,27L3,27C1.344254926518,27,0,25.655745073482,0,24L0,3C0,1.344254926518,1.344254926518,0,3,0Z"/><g clip-path="url(#clip11)"><g class="mark-group role-scope" role="graphics-object" aria-roledescription="group mark container"><g transform="translate(0,0)"><path class="background" aria-hidden="true" d="M0,0h0v27h0Z"/><g><g class="mark-rect role-mark marks" role="graphics-object" aria-roledescription="rect mark container"><path aria-label="Passengers (Millions): 2961212.0; Route: Sydney to Auckland; route: Sydney to Auckland; passengers: 2,961,212" role="graphics-symbol" aria-roledescription="bar" d="M0,0h592.2424v27h-592.2424Z" fill="steelblue"/></g></g><path class="foreground" aria-hidden="true" d="" display="none"/></g></g></g><path class="foreground" aria-hidden="true" d="" display="none"/></g><g transform="translate(0,31.5)"><path class="background" aria-hidden="true" d="M3,0L285.0036,0C286.65934507348203,0,288.0036,1.344254926518,288.0036,3L288.0036,24C288.0036,25.655745073482,286.65934507348203,27,285.0036,27L3,27C1.344254926518,27,0,25.655745073482,0,24L0,3C0,1.344254926518,1.344254926518,0,3,0Z"/><g clip-path="url(#clip12)"><g class="mark-group role-scope" role="graphics-object" aria-roledescription="group mark container"><g transform="translate(0,0)"><path class="background" aria-hidden="true" d="M0,0h0v27h0Z"/><g><g class="mark-rect role-mark marks" role="graphics-object" aria-roledescription="rect mark container"><path aria-label="Passengers (Millions): 1440018.0; Route: Sydney to Singapore; route: Sydney to Singapore; passengers: 1,440,018" role="graphics-symbol" aria-roledescription="bar" d="M0,0h288.0036v27h-288.0036Z" fill="steelblue"/></g></g><path class="foreground" aria-hidden="true" d="" display="none"/></g></g></g><path class="foreground" aria-hidden="true" d="" display="none"/></g><g transform="translate(0,61.5)"><path class="background" aria-hidden="true" d="M3,0L255.4232,0C257.07894507348203,0,258.4232,1.344254926518,258.4232,3L258.4232,24C258.4232,25.655745073482,257.07894507348203,27,255.4232,27L3,27C1.344254926518,27,0,25.655745073482,0,24L0,3C0,1.344254926518,1.344254926518,0,3,0Z"/><g clip-path="url(#clip13)"><g class="mark-group role-scope" role="graphics-object" aria-roledescription="group mark container"><g transform="translate(0,0)"><path class="background" aria-hidden="true" d="M0,0h0v27h0Z"/><g><g class="mark-rect role-mark marks" role="graphics-object" aria-roledescription="rect mark container"><path aria-label="Passengers (Millions): 1292116.0; Route: Sydney to Tokyo; route: Sydney to Tokyo; passengers: 1,292,116" role="graphics-symbol" aria-roledescription="bar" d="M0,0h258.4232v27h-258.4232Z" fill="steelblue"/></g></g><path class="foreground" aria-hidden="true" d="" display="none"/></g></g></g><path class="foreground" aria-hidden="true" d="" display="none"/></g><g transform="translate(0,91.5)"><path class="background" aria-hidden="true" d="M3,0L227.38,0C229.035745073482,0,230.38,1.344254926518,230.38,3L230.38,24C230.38,25.655745073482,229.035745073482,27,227.38,27L3,27C1.344254926518,27,0,25.655745073482,0,24L0,3C0,1.344254926518,1.344254926518,0,3,0Z"/><g clip-path="url(#clip14)"><g class="mark-group role-scope" role="graphics-object" aria-roledescription="group mark container"><g transform="translate(0,0)"><path class="background" aria-hidden="true" d="M0,0h0v27h0Z"/><g><g class="mark-rect role-mark marks" role="graphics-object" aria-roledescription="rect mark container"><path aria-label="Passengers (Millions): 1151900.0; Route: Sydney to Hong Kong; route: Sydney to Hong Kong; passengers: 1,151,900" role="graphics-symbol" aria-roledescription="bar" d="M0,0h230.38v27h-230.38Z" fill="steelblue"/></g></g><path class="foreground" aria-hidden="true" d="" display="none"/></g></g></g><path class="foreground" aria-hidden="true" d="" display="none"/></g><g transform="translate(0,121.5)"><path class="background" aria-hidden="true" d="M3,0L187.5852,0C189.24094507348198,0,190.5852,1.344254926518,190.5852,3L190.5852,24C190.5852,25.655745073482,189.24094507348198,27,187.5852,27L3,27C1.344254926518,27,0,25.655745073482,0,24L0,3C0,1.344254926518,1.344254926518,0,3,0Z"/><g clip-path="url(#clip15)"><g class="mark-group role-scope" role="graphics-object" aria-roledescription="group mark container"><g transform="translate(0,0)"><path class="background" aria-hidden="true" d="M0,0h0v27h0Z"/><g><g class="mark-rect role-mark marks" role="graphics-object" aria-roledescription="rect mark container"><path aria-label="Passengers (Millions): 952926.0; Route: Perth to Singapore; route: Perth to Singapore; passengers: 952,926" role="graphics-symbol" aria-roledescription="bar" d="M0,0h190.5852v27h-190.5852Z" fill="steelblue"/></g></g><path class="foreground" aria-hidden="true" d="" display="none"/></g></g></g><path class="foreground" aria-hidden="true" d="" display="none"/></g><g transform="translate(0,151.5)"><path class="background" aria-hidden="true" d="M3,0L175.6492,0C177.304945073482,0,178.6492,1.344254926518,178.6492,3L178.6492,24C178.6492,25.655745073482,177.304945073482,27,175.6492,27L3,27C1.344254926518,27,0,25.655745073482,0,24L0,3C0,1.344254926518,1.344254926518,0,3,0Z"/><g clip-path="url(#clip16)"><g class="mark-group role-scope" role="graphics-object" aria-roledescription="group mark container"><g transform="translate(0,0)"><path class="background" aria-hidden="true" d="M0,0h0v27h0Z"/><g><g class="mark-rect role-mark marks" role="graphics-object" aria-roledescription="rect mark container"><path aria-label="Passengers (Millions): 893246.0; Route: Brisbane to Auckland; route: Brisbane to Auckland; passengers: 893,246" role="graphics-symbol" aria-roledescription="bar" d="M0,0h178.6492v27h-178.6492Z" fill="steelblue"/></g></g><path class="foreground" aria-hidden="true" d="" display="none"/></g></g></g><path class="foreground" aria-hidden="true" d="" display="none"/></g><g transform="translate(0,181.5)"><path class="background" aria-hidden="true" d="M3,0L173.47140000000002,0C175.127145073482,0,176.47140000000002,1.344254926518,176.47140000000002,3L176.47140000000002,24C176.47140000000002,25.655745073482,175.127145073482,27,173.47140000000002,27L3,27C1.344254926518,27,0,25.655745073482,0,24L0,3C0,1.344254926518,1.344254926518,0,3,0Z"/><g clip-path="url(#clip17)"><g class="mark-group role-scope" role="graphics-object" aria-roledescription="group mark container"><g transform="translate(0,0)"><path class="background" aria-hidden="true" d="M0,0h0v27h0Z"/><g><g class="mark-rect role-mark marks" role="graphics-object" aria-roledescription="rect mark container"><path aria-label="Passengers (Millions): 882357.0; Route: Sydney to Christchurch; route: Sydney to Christchurch; passengers: 882,357" role="graphics-symbol" aria-roledescription="bar" d="M0,0h176.47140000000002v27h-176.47140000000002Z" fill="steelblue"/></g></g><path class="foreground" aria-hidden="true" d="" display="none"/></g></g></g><path class="foreground" aria-hidden="true" d="" display="none"/></g><g transform="translate(0,211.5)"><path class="background" aria-hidden="true" d="M3,0L170.0502,0C171.70594507348198,0,173.0502,1.344254926518,173.0502,3L173.0502,24C173.0502,25.655745073482,171.70594507348198,27,170.0502,27L3,27C1.344254926518,27,0,25.655745073482,0,24L0,3C0,1.344254926518,1.344254926518,0,3,0Z"/><g clip-path="url(#clip18)"><g class="mark-group role-scope" role="graphics-object" aria-roledescription="group mark container"><g transform="translate(0,0)"><path class="background" aria-hidden="true" d="M0,0h0v27h0Z"/><g><g class="mark-rect role-mark marks" role="graphics-object" aria-roledescription="rect mark container"><path aria-label="Passengers (Millions): 865251.0; Route: Melbourne to Singapore; route: Melbourne to Singapore; passengers: 865,251" role="graphics-symbol" aria-roledescription="bar" d="M0,0h173.0502v27h-173.0502Z" fill="steelblue"/></g></g><path class="foreground" aria-hidden="true" d="" display="none"/></g></g></g><path class="foreground" aria-hidden="true" d="" display="none"/></g><g transform="translate(0,241.5)"><path class="background" aria-hidden="true" d="M3,0L169.5928,0C171.248545073482,0,172.5928,1.344254926518,172.5928,3L172.5928,24C172.5928,25.655745073482,171.248545073482,27,169.5928,27L3,27C1.344254926518,27,0,25.655745073482,0,24L0,3C0,1.344254926518,1.344254926518,0,3,0Z"/><g clip-path="url(#clip19)"><g class="mark-group role-scope" role="graphics-object" aria-roledescription="group mark container"><g transform="translate(0,0)"><path class="background" aria-hidden="true" d="M0,0h0v27h0Z"/><g><g class="mark-rect role-mark marks" role="graphics-object" aria-roledescription="rect mark container"><path aria-label="Passengers (Millions): 862964.0; Route: Sydney to Los Angeles; route: Sydney to Los Angeles; passengers: 862,964" role="graphics-symbol" aria-roledescription="bar" d="M0,0h172.5928v27h-172.5928Z" fill="steelblue"/></g></g><path class="foreground" aria-hidden="true" d="" display="none"/></g></g></g><path class="foreground" aria-hidden="true" d="" display="none"/></g><g transform="translate(0,271.5)"><path class="background" aria-hidden="true" d="M3,0L169.3628,0C171.018545073482,0,172.3628,1.344254926518,172.3628,3L172.3628,24C172.3628,25.655745073482,171.018545073482,27,169.3628,27L3,27C1.344254926518,27,0,25.655745073482,0,24L0,3C0,1.344254926518,1.344254926518,0,3,0Z"/><g clip-path="url(#clip20)"><g class="mark-group role-scope" role="graphics-object" aria-roledescription="group mark container"><g transform="translate(0,0)"><path class="background" aria-hidden="true" d="M0,0h0v27h0Z"/><g><g class="mark-rect role-mark marks" role="graphics-object" aria-roledescription="rect mark container"><path aria-label="Passengers (Millions): 861814.0; Route: Sydney to Honolulu; route: Sydney to Honolulu; passengers: 861,814" role="graphics-symbol" aria-roledescription="bar" d="M0,0h172.3628v27h-172.3628Z" fill="steelblue"/></g></g><path class="foreground" aria-hidden="true" d="" display="none"/></g></g></g><path class="foreground" aria-hidden="true" d="" display="none"/></g></g><g class="mark-group role-title"><g transform="translate(-130.73828125,-18)"><path class="background" aria-hidden="true" d="M0,0h0v0h0Z" pointer-events="none"/><g><g class="mark-text role-title-text" role="graphics-symbol" aria-roledescription="title" aria-label="Title text 'Top 10 Routes by Passenger Traffic'" pointer-events="none"><text text-anchor="start" transform="translate(0,11)" font-family="sans-serif" font-size="14px" font-weight="bold" fill="#000" opacity="1">Top 10 Routes by Passenger Traffic</text></g></g><path class="foreground" aria-hidden="true" d="" pointer-events="none" display="none"/></g></g></g><path class="foreground" aria-hidden="true" d="" display="none"/></g></g></g><defs><clipPath id="clip11"><path d="M3,0L589.2424,0C590.8981450734819,0,592.2424,1.344254926518,592.2424,3L592.2424,24C592.2424,25.655745073482,590.8981450734819,27,589.2424,27L3,27C1.344254926518,27,0,25.655745073482,0,24L0,3C0,1.344254926518,1.344254926518,0,3,0Z"/></clipPath><clipPath id="clip12"><path d="M3,0L285.0036,0C286.65934507348203,0,288.0036,1.344254926518,288.0036,3L288.0036,24C288.0036,25.655745073482,286.65934507348203,27,285.0036,27L3,27C1.344254926518,27,0,25.655745073482,0,24L0,3C0,1.344254926518,1.344254926518,0,3,0Z"/></clipPath><clipPath id="clip13"><path d="M3,0L255.4232,0C257.07894507348203,0,258.4232,1.344254926518,258.4232,3L258.4232,24C258.4232,25.655745073482,257.07894507348203,27,255.4232,27L3,27C1.344254926518,27,0,25.655745073482,0,24L0,3C0,1.344254926518,1.344254926518,0,3,0Z"/></clipPath><clipPath id="clip14"><path d="M3,0L227.38,0C229.035745073482,0,230.38,1.344254926518,230.38,3L230.38,24C230.38,25.655745073482,229.035745073482,27,227.38,27L3,27C1.344254926518,27,0,25.655745073482,0,24L0,3C0,1.344254926518,1.344254926518,0,3,0Z"/></clipPath><clipPath id="clip15"><path d="M3,0L187.5852,0C189.24094507348198,0,190.5852,1.344254926518,190.5852,3L190.5852,24C190.5852,25.655745073482,189.24094507348198,27,187.5852,27L3,27C1.344254926518,27,0,25.655745073482,0,24L0,3C0,1.344254926518,1.344254926518,0,3,0Z"/></clipPath><clipPath id="clip16"><path d="M3,0L175.6492,0C177.304945073482,0,178.6492,1.344254926518,178.6492,3L178.6492,24C178.6492,25.655745073482,177.304945073482,27,175.6492,27L3,27C1.344254926518,27,0,25.655745073482,0,24L0,3C0,1.344254926518,1.344254926518,0,3,0Z"/></clipPath><clipPath id="clip17"><path d="M3,0L173.47140000000002,0C175.127145073482,0,176.47140000000002,1.344254926518,176.47140000000002,3L176.47140000000002,24C176.47140000000002,25.655745073482,175.127145073482,27,173.47140000000002,27L3,27C1.344254926518,27,0,25.655745073482,0,24L0,3C0,1.344254926518,1.344254926518,0,3,0Z"/></clipPath><clipPath id="clip18"><path d="M3,0L170.0502,0C171.70594507348198,0,173.0502,1.344254926518,173.0502,3L173.0502,24C173.0502,25.655745073482,171.70594507348198,27,170.0502,27L3,27C1.344254926518,27,0,25.655745073482,0,24L0,3C0,1.344254926518,1.344254926518,0,3,0Z"/></clipPath><clipPath id="clip19"><path d="M3,0L169.5928,0C171.248545073482,0,172.5928,1.344254926518,172.5928,3L172.5928,24C172.5928,25.655745073482,171.248545073482,27,169.5928,27L3,27C1.344254926518,27,0,25.655745073482,0,24L0,3C0,1.344254926518,1.344254926518,0,3,0Z"/></clipPath><clipPath id="clip20"><path d="M3,0L169.3628,0C171.018545073482,0,172.3628,1.344254926518,172.3628,3L172.3628,24C172.3628,25.655745073482,171.018545073482,27,169.3628,27L3,27C1.344254926518,27,0,25.655745073482,0,24L0,3C0,1.344254926518,1.344254926518,0,3,0Z"/></clipPath></defs></svg>